<svg id="svg" version="1.1" xmlns="http://www.w3.org/2000/svg" xmlns:xlink="http://www.w3.org/1999/xlink" width="400" height="408" viewBox="0, 0, 400,408"><g id="svgg"><path id="path0" d="M200.252 65.803 L 200.337 121.203 247.609 148.768 C 273.609 163.929,294.983 176.333,295.108 176.333 C 295.233 176.333,295.297 151.570,295.251 121.304 L 295.167 66.274 248.500 38.778 C 222.833 23.655,201.458 11.084,201.000 10.842 L 200.167 10.402 200.252 65.803 M56.580 204.148 C 30.774 219.057,9.357 231.461,8.986 231.711 C 8.317 232.163,8.308 232.600,7.823 286.667 C 7.554 316.642,7.280 341.404,7.213 341.694 C 7.139 342.017,9.823 340.646,14.129 338.161 C 18.000 335.927,39.167 323.708,61.167 311.007 C 83.167 298.306,101.620 287.670,102.175 287.372 L 103.183 286.831 103.259 272.166 C 103.301 264.100,103.431 239.387,103.550 217.250 C 103.668 195.112,103.705 177.009,103.632 177.020 C 103.560 177.031,82.386 189.238,56.580 204.148 M295.785 220.500 C 295.784 222.150,295.840 222.867,295.910 222.093 C 295.980 221.320,295.981 219.970,295.912 219.093 C 295.843 218.217,295.786 218.850,295.785 220.500 M392.433 241.333 C 392.433 242.342,392.496 242.754,392.572 242.250 C 392.648 241.746,392.648 240.921,392.572 240.417 C 392.496 239.912,392.433 240.325,392.433 241.333 M156.770 245.249 C 159.486 245.305,163.836 245.305,166.437 245.249 C 169.038 245.193,166.817 245.147,161.500 245.147 C 156.183 245.147,154.055 245.193,156.770 245.249 M210.417 245.249 C 212.204 245.308,215.129 245.308,216.917 245.249 C 218.704 245.189,217.242 245.140,213.667 245.140 C 210.092 245.140,208.629 245.189,210.417 245.249 M245.435 245.249 C 247.600 245.307,251.050 245.307,253.102 245.249 C 255.154 245.190,253.383 245.143,249.167 245.143 C 244.950 245.143,243.271 245.191,245.435 245.249 M221.829 259.933 C 210.274 263.929,209.322 278.019,220.245 283.397 C 226.156 286.307,235.452 283.815,238.202 278.583 L 238.684 277.667 235.986 277.667 C 233.632 277.667,233.152 277.771,232.210 278.490 C 223.479 285.149,212.196 273.826,219.893 266.130 C 223.228 262.794,229.360 262.668,232.700 265.865 C 233.500 266.632,233.774 266.688,236.296 266.598 L 239.025 266.500 237.800 264.752 C 234.675 260.293,227.259 258.055,221.829 259.933 M139.667 261.833 L 139.667 264.000 142.167 264.000 L 144.667 264.000 144.667 274.167 L 144.667 284.333 147.000 284.333 L 149.333 284.333 149.333 274.167 L 149.333 264.000 151.833 264.000 L 154.333 264.000 154.333 261.833 L 154.333 259.667 147.000 259.667 L 139.667 259.667 139.667 261.833 M157.413 271.879 L 157.500 284.167 159.917 284.265 L 162.333 284.363 162.333 279.731 L 162.333 275.099 165.154 274.900 C 172.582 274.376,176.476 269.474,173.721 264.117 C 171.920 260.614,170.184 259.898,163.079 259.728 L 157.325 259.591 157.413 271.879 M189.000 272.000 L 189.000 284.333 191.325 284.333 L 193.650 284.333 193.742 279.083 L 193.833 273.833 198.667 273.833 L 203.500 273.833 203.592 279.083 L 203.684 284.333 206.008 284.333 L 208.333 284.333 208.333 272.000 L 208.333 259.667 206.000 259.667 L 203.667 259.667 203.667 264.667 L 203.667 269.667 198.667 269.667 L 193.667 269.667 193.667 264.667 L 193.667 259.667 191.333 259.667 L 189.000 259.667 189.000 272.000 M242.667 271.988 L 242.667 284.333 245.161 284.333 L 247.656 284.333 247.745 275.097 L 247.833 265.860 251.295 275.111 L 254.757 284.363 256.783 284.265 L 258.809 284.167 262.212 275.220 C 264.083 270.300,265.701 266.187,265.807 266.082 C 265.913 265.976,266.000 270.039,266.000 275.111 L 266.000 284.333 268.333 284.333 L 270.667 284.333 270.667 272.000 L 270.667 259.667 267.399 259.667 L 264.131 259.667 260.664 268.674 C 257.175 277.737,256.805 278.612,256.580 278.324 C 256.513 278.237,254.889 274.042,252.972 269.000 L 249.487 259.833 246.077 259.738 L 242.667 259.643 242.667 271.988 M167.817 264.472 C 172.113 266.267,169.361 270.631,163.917 270.659 L 162.333 270.667 162.333 267.333 L 162.333 264.000 164.511 264.000 C 165.708 264.000,167.196 264.212,167.817 264.472 M392.100 276.667 C 392.100 277.675,392.162 278.087,392.239 277.583 C 392.315 277.079,392.315 276.254,392.239 275.750 C 392.162 275.246,392.100 275.658,392.100 276.667 M295.452 281.833 C 295.451 283.483,295.507 284.200,295.577 283.427 C 295.647 282.653,295.648 281.303,295.579 280.427 C 295.510 279.550,295.453 280.183,295.452 281.833 M178.333 282.167 L 178.333 284.333 180.667 284.333 L 183.000 284.333 183.000 282.167 L 183.000 280.000 180.667 280.000 L 178.333 280.000 178.333 282.167 M294.500 288.997 C 293.950 289.331,282.250 295.969,268.500 303.747 C 254.750 311.526,233.788 323.407,221.919 330.150 L 200.338 342.411 248.200 370.039 C 274.524 385.234,296.179 397.667,296.322 397.667 C 296.720 397.667,390.821 343.686,390.919 343.401 C 391.009 343.140,296.223 288.313,295.765 288.361 C 295.619 288.376,295.050 288.662,294.500 288.997 M391.767 312.333 C 391.767 313.342,391.829 313.754,391.905 313.250 C 391.982 312.746,391.982 311.921,391.905 311.417 C 391.829 310.912,391.767 311.325,391.767 312.333 " stroke="none" fill="#0c8bdb" fill-rule="evenodd"></path><path id="path1" d="M148.430 30.094 L 96.360 60.167 96.340 115.833 L 96.321 171.500 48.174 199.000 L 0.027 226.500 0.022 286.833 L 0.016 347.167 51.035 376.667 C 79.095 392.892,102.318 406.292,102.641 406.444 C 103.090 406.656,114.584 400.136,151.264 378.861 C 177.683 363.537,199.451 351.000,199.637 351.000 C 199.824 351.000,221.757 363.771,248.379 379.380 C 275.000 394.988,297.040 407.827,297.355 407.909 C 297.756 408.014,396.757 349.269,398.585 347.841 C 398.708 347.745,399.994 244.101,399.996 234.167 L 399.998 225.833 351.122 198.667 L 302.247 171.500 302.458 128.667 C 302.575 105.108,302.757 79.908,302.864 72.667 L 303.059 59.500 252.492 29.863 C 224.681 13.563,201.605 0.181,201.213 0.124 C 200.752 0.058,182.107 10.644,148.430 30.094 M248.047 38.284 L 295.500 66.235 295.584 121.418 L 295.669 176.602 344.153 204.551 L 392.638 232.500 392.642 241.833 C 392.648 254.408,391.743 343.377,391.607 343.472 C 391.548 343.513,370.086 355.811,343.914 370.800 L 296.329 398.052 248.248 370.314 C 221.803 355.058,200.124 342.541,200.071 342.498 C 200.018 342.455,202.868 340.777,206.404 338.770 C 209.940 336.763,228.658 326.142,248.000 315.169 C 267.342 304.195,285.867 293.684,289.167 291.810 L 295.167 288.403 295.368 264.618 C 295.776 216.242,295.813 176.882,295.449 176.761 C 295.257 176.697,273.766 164.207,247.691 149.006 L 200.284 121.368 152.187 148.768 L 104.090 176.167 103.886 189.167 C 103.775 196.317,103.642 221.270,103.592 244.618 L 103.500 287.070 151.223 314.952 C 177.470 330.287,198.845 342.930,198.723 343.049 C 198.600 343.167,177.014 355.660,150.754 370.811 L 103.007 398.358 54.990 370.429 L 6.974 342.500 7.158 332.667 C 7.259 327.258,7.499 302.508,7.690 277.667 C 7.882 252.825,8.086 232.349,8.144 232.165 C 8.202 231.981,29.713 219.456,55.946 204.332 L 103.642 176.833 103.660 121.167 L 103.678 65.500 151.756 37.949 C 178.198 22.796,200.005 10.384,200.214 10.366 C 200.423 10.348,221.948 22.911,248.047 38.284 M178.718 179.257 C 187.118 181.559,192.719 188.236,192.719 195.947 C 192.719 201.091,190.440 205.778,186.976 207.755 C 185.309 208.707,185.286 208.657,187.926 209.823 C 199.389 214.885,200.039 232.241,189.069 240.342 C 183.492 244.460,180.531 245.049,164.417 245.241 L 151.667 245.394 151.667 211.832 L 151.667 178.271 163.917 178.415 C 175.054 178.545,176.398 178.622,178.718 179.257 M220.333 192.528 L 220.333 206.722 230.912 192.528 L 241.491 178.333 249.265 178.333 C 254.715 178.333,256.973 178.440,256.818 178.691 C 256.697 178.888,250.945 186.126,244.036 194.775 C 237.127 203.425,231.361 210.685,231.223 210.909 C 231.064 211.166,235.665 217.407,243.758 227.908 C 250.790 237.034,256.655 244.688,256.792 244.917 C 256.987 245.245,255.397 245.332,249.270 245.325 L 241.500 245.317 231.000 231.002 L 220.500 216.686 220.413 231.010 L 220.326 245.333 213.663 245.333 L 207.000 245.333 207.000 211.833 L 207.000 178.333 213.667 178.333 L 220.333 178.333 220.333 192.528 M165.000 197.303 L 165.000 204.000 168.597 204.000 C 176.023 204.000,179.634 201.765,179.659 197.154 C 179.684 192.696,176.983 190.871,170.139 190.720 L 165.000 190.607 165.000 197.303 M165.000 224.630 L 165.000 233.000 169.083 232.997 C 179.080 232.991,184.012 230.105,183.998 224.269 C 183.985 218.972,180.038 216.561,171.083 216.382 L 165.000 216.260 165.000 224.630 M230.107 259.498 C 234.078 260.533,239.000 264.399,239.000 266.483 C 239.000 267.290,233.207 266.596,232.027 265.648 C 226.373 261.105,217.680 264.908,217.670 271.930 C 217.659 278.916,226.148 282.822,231.863 278.460 C 233.272 277.384,233.467 277.333,236.170 277.333 C 239.333 277.333,239.378 277.378,238.057 279.200 C 232.932 286.267,222.248 286.950,216.006 280.609 C 206.629 271.082,216.698 256.006,230.107 259.498 M154.599 261.750 L 154.697 264.000 152.182 264.000 L 149.667 264.000 149.667 274.167 L 149.667 284.333 147.000 284.333 L 144.333 284.333 144.333 274.167 L 144.333 264.000 141.833 264.000 L 139.333 264.000 139.333 261.889 C 139.333 259.125,138.756 259.308,147.145 259.410 L 154.500 259.500 154.599 261.750 M169.691 260.085 C 178.496 263.766,175.182 275.000,165.291 275.000 L 162.667 275.000 162.667 279.667 L 162.667 284.333 160.000 284.333 L 157.333 284.333 157.333 271.785 L 157.333 259.236 162.917 259.412 C 166.765 259.533,168.870 259.742,169.691 260.085 M193.926 264.417 L 194.018 269.333 198.667 269.333 L 203.316 269.333 203.408 264.417 L 203.500 259.500 206.000 259.500 L 208.500 259.500 208.587 271.917 L 208.675 284.333 206.004 284.333 L 203.333 284.333 203.333 279.167 L 203.333 274.000 198.667 274.000 L 194.000 274.000 194.000 279.167 L 194.000 284.333 191.333 284.333 L 188.667 284.333 188.667 271.819 L 188.667 259.305 191.250 259.403 L 193.833 259.500 193.926 264.417 M249.669 260.005 C 249.867 260.375,251.363 264.164,252.992 268.426 C 254.622 272.687,256.130 276.622,256.343 277.170 C 256.764 278.255,256.522 278.798,262.480 263.405 L 264.065 259.311 267.449 259.405 L 270.833 259.500 270.921 271.917 L 271.008 284.333 268.343 284.333 L 265.678 284.333 265.589 275.704 L 265.500 267.075 262.280 275.621 L 259.060 284.167 256.779 284.263 L 254.498 284.359 251.166 275.438 L 247.833 266.517 247.745 275.425 L 247.656 284.333 245.161 284.333 L 242.667 284.333 242.667 271.833 L 242.667 259.333 245.988 259.333 C 248.977 259.333,249.346 259.401,249.669 260.005 M162.667 267.333 L 162.667 270.333 164.511 270.333 C 167.735 270.333,169.467 269.201,169.467 267.092 C 169.467 265.137,168.209 264.333,165.148 264.333 L 162.667 264.333 162.667 267.333 M183.333 282.000 L 183.333 284.333 180.833 284.333 L 178.333 284.333 178.333 282.000 L 178.333 279.667 180.833 279.667 L 183.333 279.667 183.333 282.000 " stroke="none" fill="#fbfbfb" fill-rule="evenodd"></path><path id="path2" d="M151.927 38.091 L 104.021 65.500 104.010 120.757 L 104.000 176.013 105.623 175.090 C 106.516 174.582,128.186 162.242,153.780 147.667 L 200.313 121.167 200.323 65.917 C 200.329 35.529,200.221 10.670,200.083 10.674 C 199.946 10.678,178.276 23.016,151.927 38.091 M295.874 223.624 C 295.761 249.222,295.619 274.179,295.559 279.083 L 295.451 288.000 343.424 315.690 C 369.809 330.920,391.437 343.332,391.485 343.274 C 391.534 343.215,391.745 321.492,391.955 295.000 C 392.165 268.508,392.425 243.683,392.533 239.833 L 392.729 232.833 352.291 209.500 C 330.050 196.667,308.305 184.122,303.967 181.624 L 296.081 177.081 295.874 223.624 M152.000 211.691 L 152.000 245.048 164.917 244.914 C 180.859 244.748,183.459 244.234,189.032 240.143 C 200.301 231.871,199.014 214.464,186.766 209.487 L 184.961 208.753 186.453 207.879 C 193.948 203.486,194.612 192.025,187.796 184.691 C 183.017 179.549,177.725 178.343,159.917 178.336 L 152.000 178.333 152.000 211.691 M207.333 211.667 L 207.333 245.000 213.663 245.000 L 219.993 245.000 220.080 230.454 L 220.167 215.907 230.833 230.450 L 241.500 244.993 249.105 244.996 L 256.710 245.000 254.068 241.583 C 231.926 212.951,230.652 211.236,231.110 210.698 C 232.621 208.923,256.667 178.622,256.667 178.492 C 256.667 178.405,253.306 178.333,249.199 178.333 L 241.732 178.333 230.949 192.750 L 220.167 207.167 220.080 192.750 L 219.993 178.333 213.663 178.333 L 207.333 178.333 207.333 211.667 M176.395 191.418 C 181.545 194.445,180.808 201.478,175.131 203.480 C 174.059 203.858,171.985 204.119,169.083 204.242 L 164.667 204.428 164.667 197.345 L 164.667 190.262 169.750 190.381 C 174.591 190.495,174.908 190.544,176.395 191.418 M177.678 216.635 C 181.583 217.817,183.791 220.406,183.937 223.974 C 184.195 230.274,179.970 233.027,169.903 233.120 L 164.833 233.167 164.744 224.538 L 164.655 215.910 170.578 216.094 C 173.835 216.196,177.030 216.439,177.678 216.635 M71.167 305.195 C 53.933 315.166,32.521 327.544,23.583 332.700 C 14.646 337.856,7.337 342.171,7.340 342.288 C 7.352 342.627,102.427 397.833,103.000 397.833 C 104.218 397.833,198.739 342.900,198.110 342.558 C 197.775 342.375,176.235 329.800,150.243 314.613 C 124.252 299.426,102.877 287.014,102.743 287.032 C 102.610 287.050,88.400 295.223,71.167 305.195 " stroke="none" fill="#042494" fill-rule="evenodd"></path><path id="path3" d="M207.160 211.833 C 207.160 230.350,207.201 237.974,207.250 228.775 C 207.299 219.577,207.299 204.427,207.250 195.109 C 207.201 185.791,207.160 193.317,207.160 211.833 M164.808 197.500 C 164.808 201.350,164.857 202.879,164.916 200.899 C 164.975 198.918,164.974 195.768,164.915 193.899 C 164.856 192.029,164.807 193.650,164.808 197.500 M295.810 210.000 C 295.810 214.308,295.858 216.071,295.916 213.917 C 295.974 211.762,295.974 208.237,295.916 206.083 C 295.858 203.929,295.810 205.692,295.810 210.000 M164.817 216.423 C 164.728 216.656,164.695 220.518,164.744 225.006 L 164.833 233.167 167.833 233.185 L 170.833 233.204 167.917 233.090 L 165.000 232.975 165.000 224.664 L 165.000 216.352 169.583 216.249 L 174.167 216.146 169.573 216.073 C 166.114 216.018,164.939 216.105,164.817 216.423 M103.482 232.333 C 103.482 238.292,103.527 240.729,103.583 237.750 C 103.638 234.771,103.638 229.896,103.583 226.917 C 103.527 223.938,103.482 226.375,103.482 232.333 M8.141 239.667 C 8.141 243.425,8.189 244.963,8.249 243.083 C 8.308 241.204,8.308 238.129,8.249 236.250 C 8.189 234.371,8.141 235.908,8.141 239.667 M392.465 247.500 C 392.465 250.067,392.518 251.073,392.581 249.735 C 392.645 248.398,392.644 246.298,392.580 245.069 C 392.516 243.839,392.464 244.933,392.465 247.500 M171.417 245.230 C 171.737 245.314,172.262 245.314,172.583 245.230 C 172.904 245.146,172.642 245.077,172.000 245.077 C 171.358 245.077,171.096 245.146,171.417 245.230 M225.421 259.239 C 225.928 259.316,226.678 259.314,227.088 259.235 C 227.498 259.156,227.083 259.093,226.167 259.095 C 225.250 259.098,224.915 259.163,225.421 259.239 M139.443 261.833 C 139.444 263.117,139.504 263.601,139.577 262.909 C 139.649 262.218,139.648 261.168,139.574 260.576 C 139.500 259.984,139.441 260.550,139.443 261.833 M188.818 272.000 C 188.818 278.875,188.862 281.688,188.916 278.250 C 188.970 274.813,188.970 269.188,188.916 265.750 C 188.862 262.313,188.818 265.125,188.818 272.000 M203.333 264.491 L 203.333 269.316 198.417 269.417 L 193.500 269.519 198.583 269.593 L 203.667 269.667 203.667 264.667 C 203.667 261.917,203.592 259.667,203.500 259.667 C 203.408 259.667,203.333 261.838,203.333 264.491 M270.818 272.000 C 270.818 278.875,270.862 281.688,270.916 278.250 C 270.970 274.813,270.970 269.188,270.916 265.750 C 270.862 262.313,270.818 265.125,270.818 272.000 M144.482 274.167 C 144.481 279.850,144.527 282.222,144.583 279.437 C 144.638 276.653,144.638 272.003,144.583 269.104 C 144.527 266.205,144.482 268.483,144.482 274.167 M295.474 272.333 C 295.474 276.092,295.523 277.629,295.582 275.750 C 295.641 273.871,295.641 270.796,295.582 268.917 C 295.523 267.037,295.474 268.575,295.474 272.333 M212.433 272.000 C 212.433 273.008,212.496 273.421,212.572 272.917 C 212.648 272.412,212.648 271.587,212.572 271.083 C 212.496 270.579,212.433 270.992,212.433 272.000 M7.807 277.667 C 7.807 281.425,7.856 282.962,7.915 281.083 C 7.975 279.204,7.975 276.129,7.915 274.250 C 7.856 272.371,7.807 273.908,7.807 277.667 M198.575 273.911 L 203.316 274.018 203.421 279.176 L 203.526 284.334 203.513 279.084 L 203.500 273.833 198.667 273.819 L 193.833 273.804 198.575 273.911 M392.132 282.833 C 392.132 285.400,392.184 286.406,392.248 285.069 C 392.311 283.732,392.311 281.632,392.247 280.402 C 392.183 279.173,392.131 280.267,392.132 282.833 M180.568 279.906 L 182.970 280.029 183.091 282.098 L 183.212 284.167 183.189 282.000 L 183.167 279.833 180.667 279.808 L 178.167 279.783 180.568 279.906 M236.479 280.750 L 235.500 281.833 236.583 280.854 C 237.593 279.942,237.820 279.667,237.562 279.667 C 237.505 279.667,237.017 280.154,236.479 280.750 M103.103 284.833 C 103.105 285.933,103.167 286.343,103.242 285.744 C 103.316 285.145,103.314 284.245,103.238 283.744 C 103.162 283.243,103.101 283.733,103.103 284.833 M225.583 284.902 C 225.996 284.981,226.671 284.981,227.083 284.902 C 227.496 284.822,227.158 284.757,226.333 284.757 C 225.508 284.757,225.171 284.822,225.583 284.902 M7.474 315.333 C 7.474 319.092,7.523 320.629,7.582 318.750 C 7.641 316.871,7.641 313.796,7.582 311.917 C 7.523 310.037,7.474 311.575,7.474 315.333 M391.798 318.500 C 391.799 321.067,391.851 322.073,391.914 320.735 C 391.978 319.398,391.977 317.298,391.914 316.069 C 391.850 314.839,391.798 315.933,391.798 318.500 " stroke="none" fill="#55aae5" fill-rule="evenodd"></path><path id="path4" d="M103.830 127.333 C 103.830 161.525,103.869 175.512,103.917 158.417 C 103.964 141.321,103.964 113.346,103.917 96.250 C 103.869 79.154,103.830 93.142,103.830 127.333 M295.496 121.500 C 295.496 151.933,295.535 164.433,295.583 149.276 C 295.631 134.120,295.631 109.220,295.583 93.943 C 295.535 78.666,295.496 91.067,295.496 121.500 M151.827 211.833 C 151.827 230.350,151.867 237.974,151.917 228.775 C 151.966 219.577,151.966 204.427,151.917 195.109 C 151.867 185.791,151.827 193.317,151.827 211.833 M220.153 192.667 C 220.153 200.642,220.196 203.904,220.250 199.917 C 220.303 195.929,220.303 189.404,220.250 185.417 C 220.196 181.429,220.153 184.692,220.153 192.667 M187.333 184.167 C 187.955 184.808,188.539 185.333,188.631 185.333 C 188.722 185.333,188.289 184.808,187.667 184.167 C 187.045 183.525,186.461 183.000,186.369 183.000 C 186.278 183.000,186.711 183.525,187.333 184.167 M295.813 193.333 C 295.813 198.375,295.859 200.438,295.916 197.917 C 295.972 195.396,295.972 191.271,295.916 188.750 C 295.859 186.229,295.813 188.292,295.813 193.333 M166.583 190.579 C 167.546 190.646,169.121 190.646,170.083 190.579 C 171.046 190.512,170.258 190.457,168.333 190.457 C 166.408 190.457,165.621 190.512,166.583 190.579 M166.250 204.244 C 167.029 204.314,168.304 204.314,169.083 204.244 C 169.862 204.174,169.225 204.116,167.667 204.116 C 166.108 204.116,165.471 204.174,166.250 204.244 M188.479 206.417 L 187.500 207.500 188.583 206.521 C 189.179 205.983,189.667 205.495,189.667 205.438 C 189.667 205.180,189.392 205.407,188.479 206.417 M220.153 230.833 C 220.153 238.900,220.197 242.152,220.250 238.061 C 220.303 233.969,220.303 227.369,220.250 223.394 C 220.196 219.419,220.153 222.767,220.153 230.833 M191.151 238.417 L 189.833 239.833 191.250 238.516 C 192.029 237.791,192.667 237.153,192.667 237.099 C 192.667 236.847,192.376 237.099,191.151 238.417 M103.479 251.833 C 103.479 256.783,103.525 258.855,103.582 256.437 C 103.639 254.018,103.639 249.968,103.583 247.437 C 103.526 244.905,103.479 246.883,103.479 251.833 M295.479 257.167 C 295.479 261.933,295.526 263.837,295.583 261.397 C 295.640 258.957,295.639 255.057,295.582 252.730 C 295.525 250.404,295.478 252.400,295.479 257.167 M392.468 257.167 C 392.469 260.100,392.520 261.255,392.582 259.734 C 392.643 258.213,392.643 255.813,392.581 254.401 C 392.518 252.989,392.468 254.233,392.468 257.167 M7.806 264.833 C 7.806 268.317,7.855 269.696,7.915 267.899 C 7.975 266.102,7.975 263.252,7.915 261.566 C 7.854 259.880,7.805 261.350,7.806 264.833 M147.068 259.580 L 154.303 259.679 154.426 261.841 L 154.549 264.003 154.525 261.751 L 154.500 259.500 147.167 259.490 L 139.833 259.481 147.068 259.580 M159.417 259.581 C 160.654 259.645,162.679 259.645,163.917 259.581 C 165.154 259.516,164.142 259.464,161.667 259.464 C 159.192 259.464,158.179 259.516,159.417 259.581 M191.157 259.575 L 193.649 259.694 193.755 264.514 L 193.861 269.334 193.847 264.417 L 193.833 259.500 191.249 259.477 L 188.664 259.455 191.157 259.575 M205.913 259.573 L 208.325 259.696 208.419 271.931 L 208.512 284.167 208.506 271.833 L 208.500 259.500 206.000 259.475 L 203.500 259.450 205.913 259.573 M244.250 259.579 C 245.213 259.646,246.787 259.646,247.750 259.579 C 248.713 259.512,247.925 259.457,246.000 259.457 C 244.075 259.457,243.287 259.512,244.250 259.579 M265.583 259.579 C 266.546 259.646,268.121 259.646,269.083 259.579 C 270.046 259.512,269.258 259.457,267.333 259.457 C 265.408 259.457,264.621 259.512,265.583 259.579 M215.982 263.250 L 214.833 264.500 216.083 263.351 C 217.247 262.282,217.487 262.000,217.232 262.000 C 217.176 262.000,216.614 262.563,215.982 263.250 M149.482 274.167 C 149.481 279.850,149.527 282.222,149.583 279.437 C 149.638 276.653,149.638 272.003,149.583 269.104 C 149.527 266.205,149.482 268.483,149.482 274.167 M162.405 267.250 L 162.500 270.500 163.500 270.531 C 164.443 270.560,164.448 270.554,163.583 270.427 L 162.667 270.291 162.667 267.329 L 162.667 264.367 164.583 264.246 L 166.500 264.126 164.405 264.063 L 162.309 264.000 162.405 267.250 M265.813 275.333 C 265.813 280.375,265.859 282.438,265.916 279.917 C 265.972 277.396,265.972 273.271,265.916 270.750 C 265.859 268.229,265.813 270.292,265.813 275.333 M217.411 272.000 C 217.411 272.642,217.479 272.904,217.563 272.583 C 217.647 272.262,217.647 271.737,217.563 271.417 C 217.479 271.096,217.411 271.358,217.411 272.000 M193.802 279.167 C 193.802 282.100,193.853 283.255,193.915 281.734 C 193.977 280.213,193.976 277.813,193.914 276.401 C 193.852 274.989,193.801 276.233,193.802 279.167 M162.466 279.667 C 162.466 282.325,162.518 283.412,162.581 282.083 C 162.644 280.754,162.644 278.579,162.581 277.250 C 162.518 275.921,162.466 277.008,162.466 279.667 M232.885 277.583 C 232.800 277.721,234.141 277.833,235.865 277.833 C 237.589 277.833,239.000 277.721,239.000 277.583 C 239.000 277.446,237.659 277.333,236.020 277.333 C 234.380 277.333,232.970 277.446,232.885 277.583 M392.135 292.500 C 392.135 295.433,392.186 296.589,392.248 295.068 C 392.310 293.546,392.310 291.146,392.247 289.734 C 392.185 288.322,392.135 289.567,392.135 292.500 M7.472 302.667 C 7.472 306.058,7.521 307.446,7.582 305.750 C 7.642 304.054,7.642 301.279,7.582 299.583 C 7.521 297.887,7.472 299.275,7.472 302.667 M391.801 328.000 C 391.801 330.842,391.852 332.004,391.914 330.583 C 391.977 329.162,391.977 326.837,391.914 325.417 C 391.852 323.996,391.801 325.158,391.801 328.000 M7.127 338.167 C 7.128 340.367,7.182 341.223,7.247 340.070 C 7.312 338.917,7.312 337.117,7.246 336.070 C 7.180 335.023,7.127 335.967,7.127 338.167 " stroke="none" fill="#c4d3e4" fill-rule="evenodd"></path></g></svg>